<?xml version="1.0" encoding="UTF-8"?>
<svg id="Layer_2" xmlns="http://www.w3.org/2000/svg" version="1.1" viewBox="0 0 838 240">
  <!-- Generator: Adobe Illustrator 29.8.2, SVG Export Plug-In . SVG Version: 2.1.1 Build 3)  -->
  <defs>
    <style>
      .st0 {
        fill: #fff;
      }
    </style>
  </defs>
  <g>
    <path d="M91.5157637,168.9272461c-2.5136719,0-4.7885742-.9492188-6.5791016-2.7451172-1.7827148-1.7763672-2.7324219-4.0517578-2.7324219-6.5664062v-79.2314453c0-2.5073242.9462891-4.7802734,2.7373047-6.5722656,1.7924805-1.7924805,4.0654297-2.7392578,6.5742188-2.7392578h61.8154297c2.5039062,0,4.7744141.9443359,6.5668945,2.7314453,1.8007812,1.809082,2.7446289,4.0791016,2.7446289,6.5800781v18.6425781c0,2.5083008-.9467773,4.78125-2.7382812,6.5727539-.8935547.8935547-1.9072266,1.5771484-3.0097656,2.0375977.1894531.1625977.3735352.3334961.5532227.5131836,1.7973633,1.8022461,2.7421875,4.0727539,2.7421875,6.5756836v18.5195312c0,2.5087891-.9472656,4.7822266-2.7387695,6.5742188-1.7910156,1.7910156-4.0639648,2.7373047-6.5727539,2.7373047h-26.625v17.0585938c0,2.5097656-.9477539,4.7832031-2.7402344,6.5742188-1.7900391,1.7900391-4.0629883,2.7373047-6.5712891,2.7373047h-23.4262695Z"/>
    <path d="M166.4552168,168.9272461c-2.5136719,0-4.7885742-.9492188-6.5791016-2.7451172-1.7832031-1.7783203-2.7324219-4.0527344-2.7324219-6.5664062v-57.1542969c0-2.5087891.9472656-4.7817383,2.7387695-6.5737305,1.7910156-1.7910156,4.0639648-2.737793,6.5727539-2.737793h21.4638672c2.5024414,0,4.7729492.9438477,6.5654297,2.7299805.2973633.2983398.5717773.6098633.8222656.9326172.7597656-.3867188,1.5336914-.75,2.3212891-1.0888672,3.9682617-1.7080078,8.253418-2.5737305,12.7358398-2.5737305h5.887207c2.5024414,0,4.7729492.9438477,6.5654297,2.7299805,1.8012695,1.8066406,2.7460938,4.0776367,2.7460938,6.581543v19.1328125c0,2.5087891-.9467773,4.78125-2.7382812,6.5732422-1.793457,1.7919922-4.065918,2.7382812-6.5732422,2.7382812h-15.8217773c-.6494141,0-1.0351562.0712891-1.2333984.125-.0541992.1992188-.1254883.5839844-.1254883,1.234375v27.3505859c0,2.5097656-.9477539,4.7832031-2.7402344,6.5742188-1.7905273,1.7900391-4.0629883,2.7373047-6.5712891,2.7373047h-23.3037109Z"/>
    <path d="M258.0738691,170.1538086c-8.2446289,0-15.3852539-1.1738281-21.2226562-3.4892578-6.2788086-2.4902344-11.1938477-6.3378906-14.6088867-11.4365234-3.3183594-4.9492188-5.2441406-11.0117188-5.7226562-18.015625l-.0083008-.1464844c-.0854492-1.9394531-.128418-3.9882812-.128418-6.0888672,0-2.1015625.043457-4.1132812.1289062-5.9775391l.0073242-.1298828c.4833984-7.1660156,2.5566406-13.3134766,6.1621094-18.2719727,3.609375-4.9614258,8.5820312-8.7246094,14.78125-11.1855469,5.8408203-2.3154297,12.7749023-3.4887695,20.6113281-3.4887695s14.7705078,1.1733398,20.6083984,3.487793c6.2021484,2.4619141,11.175293,6.2250977,14.7836914,11.1860352,3.5917969,4.9389648,5.6630859,11.0625,6.1577148,18.2021484.1748047,1.9550781.2636719,4.0332031.2636719,6.1777344s-.0883789,4.2617188-.2631836,6.2919922c-.4873047,6.9804688-2.4111328,13.0224609-5.7192383,17.9599609-3.4179688,5.0996094-8.3325195,8.9472656-14.6083984,11.4355469-5.8374023,2.3154297-12.9780273,3.4892578-21.2226562,3.4892578Z"/>
    <path d="M346.0133223,168.9272461c-2.5136719,0-4.7885742-.9492188-6.5791016-2.7451172-1.7822266-1.7744141-2.7324219-4.0498047-2.7324219-6.5664062v-32.9931641c0-.3222656-.0200195-.5664062-.0449219-.7441406-.027832-.0009766-.1484375-.0009766-.1762695,0-.0244141.1777344-.0444336.421875-.0444336.7441406v32.9931641c0,2.5087891-.9467773,4.78125-2.737793,6.5722656-1.7919922,1.7919922-4.0649414,2.7392578-6.5737305,2.7392578h-23.3032227c-2.5136719,0-4.7885742-.9492188-6.5791016-2.7451172-1.7832031-1.7783203-2.7324219-4.0527344-2.7324219-6.5664062v-57.1542969c0-2.5087891.9472656-4.7817383,2.7387695-6.5737305,1.7910156-1.7910156,4.0639648-2.737793,6.5727539-2.737793h21.4633789c2.5039062,0,4.7749023.9443359,6.5673828,2.7314453.1040039.1044922.2050781.2104492.3037109.3178711.7597656-.418457,1.5498047-.8188477,2.3691406-1.2006836,4.3837891-2.0410156,9.2387695-3.0751953,14.4316406-3.0751953,5.1660156,0,10.0527344,1.2368164,14.5244141,3.6757812,4.5986328,2.5078125,8.3515625,6.3608398,11.152832,11.4506836,2.7319336,4.9692383,4.1166992,11.2651367,4.1166992,18.7143555v33.8515625c0,2.5107422-.9482422,4.7851562-2.7421875,6.5761719-1.7885742,1.7880859-4.0610352,2.7353516-6.5693359,2.7353516h-23.4257812Z"/>
    <path d="M419.7252363,168.9272461c-6.5302734,0-12.4921875-.9150391-17.71875-2.7207031-5.8354492-2.0136719-10.5102539-5.5185547-13.8945312-10.4169922-3.3500977-4.8427734-5.0498047-11.3144531-5.0498047-19.2324219v-9.9443359h-3.6884766c-2.5146484,0-4.7900391-.9492188-6.5800781-2.7441406-1.7836914-1.78125-2.7314453-4.0556641-2.7314453-6.5673828v-14.8398438c0-2.5092773.9467773-4.7827148,2.737793-6.5737305s4.0644531-2.737793,6.5737305-2.737793h3.6884766v-13.9921875c0-2.5083008.9472656-4.7807617,2.7387695-6.5727539,1.7880859-1.7905273,4.0620117-2.7387695,6.5727539-2.7387695h21.4638672c2.5039062,0,4.7744141.9448242,6.5673828,2.7324219,1.7998047,1.8051758,2.7441406,4.0756836,2.7441406,6.5791016v13.9921875h9.4541016c2.5039062,0,4.7744141.9443359,6.5664062,2.7314453,1.7998047,1.8056641,2.7451172,4.0766602,2.7451172,6.5800781v14.8398438c0,2.5058594-.9462891,4.7783203-2.7353516,6.5703125-1.7949219,1.7949219-4.0673828,2.7412109-6.5761719,2.7412109h-9.4541016s0,7.5820312.0009766,7.6240234h10.4345703c2.5029297,0,4.7734375.9453125,6.5664062,2.7324219,1.7998047,1.8056641,2.7451172,4.0761719,2.7451172,6.5791016v16.0673828c0,2.5078125-.9472656,4.78125-2.7392578,6.5722656-1.7910156,1.7919922-4.0644531,2.7392578-6.5722656,2.7392578h-13.859375Z"/>
    <path d="M505.0894941,168.9272461c-4.2285156,0-6.7216797-1.7744141-8.0683594-3.2636719-1.3115234-1.4462891-2.1162109-2.671875-2.5761719-3.9335938l-4.4414062-11.1025391-4.4453125,11.1123047c-.4609375,1.2548828-1.2626953,2.4755859-2.5722656,3.9238281-1.3525391,1.4921875-3.8457031,3.2636719-8.0683594,3.2636719h-17.5390625c-3.2802734,0-6.1347656-1.1689453-8.2548828-3.3798828-1.8466797-1.921875-2.9638672-4.0673828-3.3173828-6.3730469l-11.3535156-78.6040039v-.7993164c0-2.3144531.9072266-4.4960938,2.5546875-6.144043,1.6474609-1.6469727,3.8291016-2.5541992,6.1435547-2.5541992h22.8134766c5.7216797,0,9.7949219,3.3950195,10.3779297,8.6494141l1.4658203,12.1542969c1.3427734-.9833984,3.2617188-1.7929688,5.9404297-1.7929688h12.5097656c2.6757812,0,4.5927734.8085938,5.9355469,1.7900391l1.4765625-12.2099609c.5771484-5.1958008,4.6503906-8.5908203,10.3720703-8.5908203h22.8134766c2.3085938,0,4.4873047.9042969,6.1357422,2.5463867,1.6582031,1.6645508,2.5625,3.84375,2.5625,6.1518555v.7993164l-11.3232422,78.4008789c-.2480469,2.4316406-1.3818359,4.6728516-3.375,6.6650391-2.1494141,2.1523438-4.9951172,3.2910156-8.2275391,3.2910156h-17.5390625Z"/>
    <path d="M563.7154707,170.1538086c-5.5410156,0-10.5791016-1.0634766-14.9726562-3.1621094-4.5507812-2.1708984-8.1777344-5.2089844-10.7763672-9.0283203-2.6835938-3.9414062-4.0449219-8.4199219-4.0449219-13.3105469,0-7.9052734,3.4111328-14.4628906,9.8652344-18.9648438.4042969-.2822266.8183594-.5585938,1.2421875-.828125-1.6328125-.3046875-3.1083984-1.0390625-4.3320312-2.1679688-1.8935547-1.7412109-2.8125-4.1582031-2.5898438-6.8144531.1572266-2.5126953,1.0654297-5.1503906,2.7753906-8.0571289,1.6191406-2.7514648,4.0546875-5.3769531,7.2402344-7.8022461,3.1005859-2.3637695,7.0458984-4.3295898,11.7236328-5.8417969,4.6308594-1.4951172,10.1816406-2.2529297,16.5019531-2.2529297,6.0898438,0,11.5361328.6767578,16.1884766,2.0107422,4.9169922,1.4121094,9.0976562,3.534668,12.4277344,6.309082,3.4492188,2.8754883,6.0683594,6.4702148,7.7871094,10.6850586,1.6367188,4.0205078,2.4667969,8.5576172,2.4667969,13.4873047v35.2001953c0,2.5087891-.9462891,4.78125-2.7373047,6.5722656-1.7958984,1.7929688-4.0683594,2.7392578-6.5742188,2.7392578h-21.4638672c-2.3388672,0-4.4707031-.8212891-6.1982422-2.3828125-1.7646484.9814453-3.6777344,1.7792969-5.7119141,2.3808594-2.7548828.8154297-5.7207031,1.2285156-8.8173828,1.2285156Z"/>
    <path d="M620.5016035,168.9272461c-2.5117188,0-4.7861328-.9482422-6.5771484-2.7421875-1.7851562-1.7802734-2.734375-4.0546875-2.734375-6.5693359v-57.1542969c0-2.5092773.9462891-4.7827148,2.7382812-6.5737305,1.7939453-1.7919922,4.0664062-2.737793,6.5732422-2.737793h21.4638672c2.5039062,0,4.7744141.9443359,6.5664062,2.7314453.296875.2978516.5712891.6088867.8212891.9306641.7587891-.3862305,1.5332031-.7495117,2.3203125-1.0883789,3.96875-1.7080078,8.2539062-2.5737305,12.7363281-2.5737305h5.8876953c2.5039062,0,4.7744141.9443359,6.5664062,2.7314453,1.7998047,1.8056641,2.7451172,4.0766602,2.7451172,6.5800781v19.1328125c0,2.5078125-.9472656,4.78125-2.7392578,6.5722656-1.7910156,1.7919922-4.0644531,2.7392578-6.5722656,2.7392578h-15.8222656c-.6494141,0-1.0351562.0712891-1.234375.1259766-.0537109.1982422-.125.5839844-.125,1.2333984v27.3505859c0,2.5087891-.9462891,4.78125-2.7373047,6.5722656-1.7919922,1.7919922-4.0654297,2.7392578-6.5742188,2.7392578h-23.3027344Z"/>
    <path d="M708.1939863,170.1538086c-6.4169922,0-12.0292969-.6767578-16.6796875-2.0107422-4.765625-1.3671875-8.765625-3.1923828-11.8896484-5.4238281-3.2255859-2.3037109-5.6933594-4.8330078-7.3339844-7.5166016-1.7519531-2.8613281-2.6787109-5.5390625-2.8300781-8.1806641-.1953125-2.546875.6552734-4.9697266,2.4023438-6.8369141,1.7470703-1.8603516,4.0625-2.8818359,6.5273438-2.8818359h.8447266c-1.4980469-1.2441406-2.8486328-2.6367188-4.0449219-4.171875-2.9960938-3.8417969-4.5166016-8.6318359-4.5166016-14.2353516,0-4.8183594,1.5957031-9.4072266,4.7421875-13.6381836,2.984375-4.0136719,7.3154297-7.2963867,12.8720703-9.7558594,5.3730469-2.375,11.9042969-3.5786133,19.4160156-3.5786133,5.6142578,0,10.71875.6582031,15.1708984,1.956543,4.4736328,1.3061523,8.3789062,3.0410156,11.6064453,5.1577148,3.3466797,2.199707,6.0009766,4.6459961,7.8945312,7.2753906,2.1259766,2.9541016,3.2861328,5.8950195,3.4492188,8.7460938.1875,2.4707031-.59375,4.8388672-2.2060547,6.6826172-1.1621094,1.3291016-2.5986328,2.2519531-4.1738281,2.7070312,2.6484375,2.1894531,4.7011719,4.6474609,6.1259766,7.3408203,1.96875,3.7294922,2.9658203,7.5185547,2.9658203,11.2685547,0,5.7529297-1.8085938,10.8408203-5.3759766,15.1240234-3.3798828,4.0546875-8.2226562,7.1357422-14.3935547,9.1582031-5.6962891,1.8671875-12.6181641,2.8134766-20.5732422,2.8134766Z"/>
    <path d="M98.7747637,168.9272461c-2.5136719,0-4.7885742-.9492188-6.5791016-2.7451172-1.7827148-1.7763672-2.7324219-4.0517578-2.7324219-6.5664062v-79.2314453c0-2.5073242.9462891-4.7802734,2.7373047-6.5722656,1.7924805-1.7924805,4.0654297-2.7392578,6.5742188-2.7392578h61.8154297c2.5039062,0,4.7744141.9443359,6.5668945,2.7314453,1.8007812,1.809082,2.7446289,4.0791016,2.7446289,6.5800781v18.6425781c0,2.5083008-.9467773,4.78125-2.7382812,6.5727539-.8935547.8935547-1.9072266,1.5771484-3.0097656,2.0375977.1894531.1625977.3735352.3334961.5532227.5131836,1.7973633,1.8022461,2.7421875,4.0727539,2.7421875,6.5756836v18.5195312c0,2.5087891-.9472656,4.7822266-2.7387695,6.5742188-1.7910156,1.7910156-4.0639648,2.7373047-6.5727539,2.7373047h-26.625v17.0585938c0,2.5097656-.9477539,4.7832031-2.7402344,6.5742188-1.7900391,1.7900391-4.0629883,2.7373047-6.5712891,2.7373047h-23.4262695Z"/>
    <path d="M173.7142168,168.9272461c-2.5136719,0-4.7885742-.9492188-6.5791016-2.7451172-1.7832031-1.7783203-2.7324219-4.0527344-2.7324219-6.5664062v-57.1542969c0-2.5087891.9472656-4.7817383,2.7387695-6.5737305,1.7910156-1.7910156,4.0639648-2.737793,6.5727539-2.737793h21.4638672c2.5024414,0,4.7729492.9438477,6.5654297,2.7299805.2973633.2983398.5717773.6098633.8222656.9326172.7597656-.3867188,1.5336914-.75,2.3212891-1.0888672,3.9682617-1.7080078,8.253418-2.5737305,12.7358398-2.5737305h5.887207c2.5024414,0,4.7729492.9438477,6.5654297,2.7299805,1.8012695,1.8066406,2.7460938,4.0776367,2.7460938,6.581543v19.1328125c0,2.5087891-.9467773,4.78125-2.7382812,6.5732422-1.793457,1.7919922-4.065918,2.7382812-6.5732422,2.7382812h-15.8217773c-.6494141,0-1.0351562.0712891-1.2333984.125-.0541992.1992188-.1254883.5839844-.1254883,1.234375v27.3505859c0,2.5097656-.9477539,4.7832031-2.7402344,6.5742188-1.7905273,1.7900391-4.0629883,2.7373047-6.5712891,2.7373047h-23.3037109Z"/>
    <path d="M265.3328691,170.1538086c-8.2446289,0-15.3852539-1.1738281-21.2226562-3.4892578-6.2788086-2.4902344-11.1938477-6.3378906-14.6088867-11.4365234-3.3183594-4.9492188-5.2441406-11.0117188-5.7226562-18.015625l-.0083008-.1464844c-.0854492-1.9394531-.128418-3.9882812-.128418-6.0888672,0-2.1015625.043457-4.1132812.1289062-5.9775391l.0073242-.1298828c.4833984-7.1660156,2.5566406-13.3134766,6.1621094-18.2719727,3.609375-4.9614258,8.5820312-8.7246094,14.78125-11.1855469,5.8408203-2.3154297,12.7749023-3.4887695,20.6113281-3.4887695s14.7705078,1.1733398,20.6083984,3.487793c6.2021484,2.4619141,11.175293,6.2250977,14.7836914,11.1860352,3.5917969,4.9389648,5.6630859,11.0625,6.1577148,18.2021484.1748047,1.9550781.2636719,4.0332031.2636719,6.1777344s-.0883789,4.2617188-.2631836,6.2919922c-.4873047,6.9804688-2.4111328,13.0224609-5.7192383,17.9599609-3.4179688,5.0996094-8.3325195,8.9472656-14.6083984,11.4355469-5.8374023,2.3154297-12.9780273,3.4892578-21.2226562,3.4892578Z"/>
    <path d="M353.2723223,168.9272461c-2.5136719,0-4.7885742-.9492188-6.5791016-2.7451172-1.7822266-1.7744141-2.7324219-4.0498047-2.7324219-6.5664062v-32.9931641c0-.3222656-.0200195-.5664062-.0449219-.7441406-.027832-.0009766-.1484375-.0009766-.1762695,0-.0244141.1777344-.0444336.421875-.0444336.7441406v32.9931641c0,2.5087891-.9467773,4.78125-2.737793,6.5722656-1.7919922,1.7919922-4.0649414,2.7392578-6.5737305,2.7392578h-23.3032227c-2.5136719,0-4.7885742-.9492188-6.5791016-2.7451172-1.7832031-1.7783203-2.7324219-4.0527344-2.7324219-6.5664062v-57.1542969c0-2.5087891.9472656-4.7817383,2.7387695-6.5737305,1.7910156-1.7910156,4.0639648-2.737793,6.5727539-2.737793h21.4633789c2.5039062,0,4.7749023.9443359,6.5673828,2.7314453.1040039.1044922.2050781.2104492.3037109.3178711.7597656-.418457,1.5498047-.8188477,2.3691406-1.2006836,4.3837891-2.0410156,9.2387695-3.0751953,14.4316406-3.0751953,5.1660156,0,10.0527344,1.2368164,14.5244141,3.6757812,4.5986328,2.5078125,8.3515625,6.3608398,11.152832,11.4506836,2.7319336,4.9692383,4.1166992,11.2651367,4.1166992,18.7143555v33.8515625c0,2.5107422-.9482422,4.7851562-2.7421875,6.5761719-1.7885742,1.7880859-4.0610352,2.7353516-6.5693359,2.7353516h-23.4257812Z"/>
    <path d="M426.9842363,168.9272461c-6.5302734,0-12.4921875-.9150391-17.71875-2.7207031-5.8354492-2.0136719-10.5102539-5.5185547-13.8945312-10.4169922-3.3500977-4.8427734-5.0498047-11.3144531-5.0498047-19.2324219v-9.9443359h-3.6884766c-2.5146484,0-4.7900391-.9492188-6.5800781-2.7441406-1.7836914-1.78125-2.7314453-4.0556641-2.7314453-6.5673828v-14.8398438c0-2.5092773.9467773-4.7827148,2.737793-6.5737305s4.0644531-2.737793,6.5737305-2.737793h3.6884766v-13.9921875c0-2.5083008.9472656-4.7807617,2.7387695-6.5727539,1.7880859-1.7905273,4.0620117-2.7387695,6.5727539-2.7387695h21.4638672c2.5039062,0,4.7744141.9448242,6.5673828,2.7324219,1.7998047,1.8051758,2.7441406,4.0756836,2.7441406,6.5791016v13.9921875h9.4541016c2.5039062,0,4.7744141.9443359,6.5664062,2.7314453,1.7998047,1.8056641,2.7451172,4.0766602,2.7451172,6.5800781v14.8398438c0,2.5058594-.9462891,4.7783203-2.7353516,6.5703125-1.7949219,1.7949219-4.0673828,2.7412109-6.5761719,2.7412109h-9.4541016s0,7.5820312.0009766,7.6240234h10.4345703c2.5029297,0,4.7734375.9453125,6.5664062,2.7324219,1.7998047,1.8056641,2.7451172,4.0761719,2.7451172,6.5791016v16.0673828c0,2.5078125-.9472656,4.78125-2.7392578,6.5722656-1.7910156,1.7919922-4.0644531,2.7392578-6.5722656,2.7392578h-13.859375Z"/>
    <path d="M512.3484941,168.9272461c-4.2285156,0-6.7216797-1.7744141-8.0683594-3.2636719-1.3115234-1.4462891-2.1162109-2.671875-2.5761719-3.9335938l-4.4414062-11.1025391-4.4453125,11.1123047c-.4609375,1.2548828-1.2626953,2.4755859-2.5722656,3.9238281-1.3525391,1.4921875-3.8457031,3.2636719-8.0683594,3.2636719h-17.5390625c-3.2802734,0-6.1347656-1.1689453-8.2548828-3.3798828-1.8466797-1.921875-2.9638672-4.0673828-3.3173828-6.3730469l-11.3535156-78.6040039v-.7993164c0-2.3144531.9072266-4.4960938,2.5546875-6.144043,1.6474609-1.6469727,3.8291016-2.5541992,6.1435547-2.5541992h22.8134766c5.7216797,0,9.7949219,3.3950195,10.3779297,8.6494141l1.4658203,12.1542969c1.3427734-.9833984,3.2617188-1.7929688,5.9404297-1.7929688h12.5097656c2.6757812,0,4.5927734.8085938,5.9355469,1.7900391l1.4765625-12.2099609c.5771484-5.1958008,4.6503906-8.5908203,10.3720703-8.5908203h22.8134766c2.3085938,0,4.4873047.9042969,6.1357422,2.5463867,1.6582031,1.6645508,2.5625,3.84375,2.5625,6.1518555v.7993164l-11.3232422,78.4008789c-.2480469,2.4316406-1.3818359,4.6728516-3.375,6.6650391-2.1494141,2.1523438-4.9951172,3.2910156-8.2275391,3.2910156h-17.5390625Z"/>
    <path d="M570.9744707,170.1538086c-5.5410156,0-10.5791016-1.0634766-14.9726562-3.1621094-4.5507812-2.1708984-8.1777344-5.2089844-10.7763672-9.0283203-2.6835938-3.9414062-4.0449219-8.4199219-4.0449219-13.3105469,0-7.9052734,3.4111328-14.4628906,9.8652344-18.9648438.4042969-.2822266.8183594-.5585938,1.2421875-.828125-1.6328125-.3046875-3.1083984-1.0390625-4.3320312-2.1679688-1.8935547-1.7412109-2.8125-4.1582031-2.5898438-6.8144531.1572266-2.5126953,1.0654297-5.1503906,2.7753906-8.0571289,1.6191406-2.7514648,4.0546875-5.3769531,7.2402344-7.8022461,3.1005859-2.3637695,7.0458984-4.3295898,11.7236328-5.8417969,4.6308594-1.4951172,10.1816406-2.2529297,16.5019531-2.2529297,6.0898438,0,11.5361328.6767578,16.1884766,2.0107422,4.9169922,1.4121094,9.0976562,3.534668,12.4277344,6.309082,3.4492188,2.8754883,6.0683594,6.4702148,7.7871094,10.6850586,1.6367188,4.0205078,2.4667969,8.5576172,2.4667969,13.4873047v35.2001953c0,2.5087891-.9462891,4.78125-2.7373047,6.5722656-1.7958984,1.7929688-4.0683594,2.7392578-6.5742188,2.7392578h-21.4638672c-2.3388672,0-4.4707031-.8212891-6.1982422-2.3828125-1.7646484.9814453-3.6777344,1.7792969-5.7119141,2.3808594-2.7548828.8154297-5.7207031,1.2285156-8.8173828,1.2285156Z"/>
    <path d="M627.7606035,168.9272461c-2.5117188,0-4.7861328-.9482422-6.5771484-2.7421875-1.7851562-1.7802734-2.734375-4.0546875-2.734375-6.5693359v-57.1542969c0-2.5092773.9462891-4.7827148,2.7382812-6.5737305,1.7939453-1.7919922,4.0664062-2.737793,6.5732422-2.737793h21.4638672c2.5039062,0,4.7744141.9443359,6.5664062,2.7314453.296875.2978516.5712891.6088867.8212891.9306641.7587891-.3862305,1.5332031-.7495117,2.3203125-1.0883789,3.96875-1.7080078,8.2539062-2.5737305,12.7363281-2.5737305h5.8876953c2.5039062,0,4.7744141.9443359,6.5664062,2.7314453,1.7998047,1.8056641,2.7451172,4.0766602,2.7451172,6.5800781v19.1328125c0,2.5078125-.9472656,4.78125-2.7392578,6.5722656-1.7910156,1.7919922-4.0644531,2.7392578-6.5722656,2.7392578h-15.8222656c-.6494141,0-1.0351562.0712891-1.234375.1259766-.0537109.1982422-.125.5839844-.125,1.2333984v27.3505859c0,2.5087891-.9462891,4.78125-2.7373047,6.5722656-1.7919922,1.7919922-4.0654297,2.7392578-6.5742188,2.7392578h-23.3027344Z"/>
    <path d="M715.4529863,170.1538086c-6.4169922,0-12.0292969-.6767578-16.6796875-2.0107422-4.765625-1.3671875-8.765625-3.1923828-11.8896484-5.4238281-3.2255859-2.3037109-5.6933594-4.8330078-7.3339844-7.5166016-1.7519531-2.8613281-2.6787109-5.5390625-2.8300781-8.1806641-.1953125-2.546875.6552734-4.9697266,2.4023438-6.8369141,1.7470703-1.8603516,4.0625-2.8818359,6.5273438-2.8818359h.8447266c-1.4980469-1.2441406-2.8486328-2.6367188-4.0449219-4.171875-2.9960938-3.8417969-4.5166016-8.6318359-4.5166016-14.2353516,0-4.8183594,1.5957031-9.4072266,4.7421875-13.6381836,2.984375-4.0136719,7.3154297-7.2963867,12.8720703-9.7558594,5.3730469-2.375,11.9042969-3.5786133,19.4160156-3.5786133,5.6142578,0,10.71875.6582031,15.1708984,1.956543,4.4736328,1.3061523,8.3789062,3.0410156,11.6064453,5.1577148,3.3466797,2.199707,6.0009766,4.6459961,7.8945312,7.2753906,2.1259766,2.9541016,3.2861328,5.8950195,3.4492188,8.7460938.1875,2.4707031-.59375,4.8388672-2.2060547,6.6826172-1.1621094,1.3291016-2.5986328,2.2519531-4.1738281,2.7070312,2.6484375,2.1894531,4.7011719,4.6474609,6.1259766,7.3408203,1.96875,3.7294922,2.9658203,7.5185547,2.9658203,11.2685547,0,5.7529297-1.8085938,10.8408203-5.3759766,15.1240234-3.3798828,4.0546875-8.2226562,7.1357422-14.3935547,9.1582031-5.6962891,1.8671875-12.6181641,2.8134766-20.5732422,2.8134766Z"/>
  </g>
  <g>
    <path class="st0" d="M91.5157637,162.9272461c-.9003906,0-1.6767578-.3261719-2.3300781-.9814453-.6557617-.6533203-.9814453-1.4296875-.9814453-2.3300781v-79.2314453c0-.8994141.3256836-1.6748047.9814453-2.3310547.6533203-.6533203,1.4296875-.9804688,2.3300781-.9804688h61.8154297c.8989258,0,1.675293.3271484,2.3305664.9804688.6533203.65625.980957,1.4316406.980957,2.3310547v18.6425781c0,.9003906-.3276367,1.6767578-.980957,2.3300781-.6552734.6552734-1.4316406.9814453-2.3305664.9814453h-35.0776367v9.0761719h32.625c.8984375,0,1.6748047.3271484,2.3300781.9814453.6533203.6552734.9814453,1.4316406.9814453,2.3300781v18.5195312c0,.9013672-.328125,1.6777344-.9814453,2.3310547-.6552734.6552734-1.4316406.9804688-2.3300781.9804688h-32.625v23.0585938c0,.9003906-.3276367,1.6767578-.9814453,2.3300781-.6552734.6552734-1.4311523.9814453-2.3300781.9814453h-23.4262695Z"/>
    <path class="st0" d="M166.4552168,162.9272461c-.9003906,0-1.6767578-.3261719-2.3300781-.9814453-.6552734-.6533203-.9814453-1.4296875-.9814453-2.3300781v-57.1542969c0-.8994141.3261719-1.6757812.9814453-2.3310547.6533203-.6533203,1.4296875-.9804688,2.3300781-.9804688h21.4638672c.8989258,0,1.6748047.3271484,2.3305664.9804688.6533203.6552734.980957,1.4316406.980957,2.3310547v4.2919922c2.6157227-2.2880859,5.5385742-4.1279297,8.7695312-5.5185547,3.2290039-1.3896484,6.6845703-2.0849609,10.3637695-2.0849609h5.887207c.8989258,0,1.6748047.3271484,2.3305664.9804688.6533203.6552734.980957,1.4316406.980957,2.3310547v19.1328125c0,.9003906-.3276367,1.6767578-.980957,2.3300781-.6557617.6552734-1.4316406.9814453-2.3305664.9814453h-15.8217773c-2.453125,0-4.2924805.6132812-5.519043,1.8398438s-1.8398438,3.0664062-1.8398438,5.5195312v27.3505859c0,.9003906-.3276367,1.6767578-.9814453,2.3300781-.6552734.6552734-1.4311523.9814453-2.3300781.9814453h-23.3037109Z"/>
    <path class="st0" d="M258.0738691,164.1538086c-7.5239258,0-13.859375-1.0234375-19.0107422-3.0664062s-9.097168-5.109375-11.8359375-9.1982422c-2.7402344-4.0878906-4.3134766-9.1162109-4.7216797-15.0859375-.0825195-1.8798828-.1225586-3.8212891-.1225586-5.8261719,0-2.0029297.0400391-3.9033203.1225586-5.703125.4082031-6.0498047,2.0849609-11.0996094,5.0283203-15.1474609,2.9438477-4.046875,6.9912109-7.0927734,12.1425781-9.1376953,5.1513672-2.0419922,11.2836914-3.0654297,18.3974609-3.0654297s13.2460938,1.0234375,18.3974609,3.0654297c5.1513672,2.0449219,9.1987305,5.0908203,12.1420898,9.1376953,2.9438477,4.0478516,4.6186523,9.0976562,5.0288086,15.1474609.1630859,1.7998047.2451172,3.7001953.2451172,5.703125,0,2.0048828-.0820312,3.9462891-.2451172,5.8261719-.4101562,5.9697266-1.9833984,10.9980469-4.722168,15.0859375-2.7402344,4.0888672-6.684082,7.1552734-11.8354492,9.1982422s-11.4887695,3.0664062-19.0107422,3.0664062ZM258.0738691,144.5297852c2.3706055,0,3.8422852-.6748047,4.4155273-2.0234375.5708008-1.3496094.9389648-3.4541016,1.1035156-6.3164062.0805664-1.2265625.1225586-2.9443359.1225586-5.1513672,0-2.2080078-.0419922-3.9248047-.1225586-5.1513672-.1645508-2.6982422-.5327148-4.7626953-1.1035156-6.1943359-.5732422-1.4296875-2.0449219-2.1455078-4.4155273-2.1455078-2.2900391,0-3.7407227.7158203-4.3540039,2.1455078-.6132812,1.4316406-1.0024414,3.4960938-1.1655273,6.1943359-.0820312,1.2265625-.1225586,2.9433594-.1225586,5.1513672,0,2.2070312.0405273,3.9248047.1225586,5.1513672.1630859,2.8623047.5522461,4.9667969,1.1655273,6.3164062.6132812,1.3486328,2.0639648,2.0234375,4.3540039,2.0234375Z"/>
    <path class="st0" d="M303.8214277,162.9272461c-.9003906,0-1.6767578-.3261719-2.3300781-.9814453-.6552734-.6533203-.9814453-1.4296875-.9814453-2.3300781v-57.1542969c0-.8994141.3261719-1.6757812.9814453-2.3310547.6533203-.6533203,1.4296875-.9804688,2.3300781-.9804688h21.4633789c.8994141,0,1.6757812.3271484,2.3310547.9804688.6533203.6552734.9814453,1.4316406.9814453,2.3310547v4.046875c2.0419922-2.3701172,4.8632812-4.3945312,8.4619141-6.0712891,3.5976562-1.6748047,7.5625-2.5136719,11.8974609-2.5136719,4.1699219,0,8.0527344.9804688,11.6513672,2.9433594,3.5976562,1.9619141,6.5195312,4.9882812,8.7695312,9.0761719,2.2480469,4.0888672,3.3730469,9.3632812,3.3730469,15.8212891v33.8515625c0,.9003906-.3271484,1.6767578-.9814453,2.3300781-.6552734.6552734-1.4316406.9814453-2.3300781.9814453h-23.4257812c-.9013672,0-1.6767578-.3261719-2.3300781-.9814453-.65625-.6533203-.9814453-1.4296875-.9814453-2.3300781v-32.9931641c0-2.2070312-.5332031-3.8818359-1.5947266-5.0283203-1.0634766-1.1435547-2.5751953-1.7167969-4.5380859-1.7167969-1.9619141,0-3.4765625.5732422-4.5380859,1.7167969-1.0634766,1.1464844-1.5947266,2.8212891-1.5947266,5.0283203v32.9931641c0,.9003906-.3271484,1.6767578-.9804688,2.3300781-.6552734.6552734-1.4316406.9814453-2.3310547.9814453h-23.3032227Z"/>
    <path class="st0" d="M419.7252363,162.9272461c-5.8876953,0-11.1425781-.796875-15.7607422-2.3916016-4.6201172-1.5947266-8.2597656-4.3115234-10.9160156-8.15625-2.6582031-3.8427734-3.9863281-9.1162109-3.9863281-15.8222656v-15.9443359h-9.6884766c-.9013672,0-1.6777344-.3251953-2.3310547-.9804688-.6552734-.6542969-.9804688-1.4296875-.9804688-2.3310547v-14.8398438c0-.8994141.3251953-1.6757812.9804688-2.3310547.6533203-.6533203,1.4296875-.9804688,2.3310547-.9804688h9.6884766v-19.9921875c0-.8994141.3261719-1.6748047.9814453-2.3300781.6533203-.6542969,1.4296875-.9814453,2.3300781-.9814453h21.4638672c.8994141,0,1.6748047.3271484,2.3310547.9814453.6533203.6552734.9804688,1.4306641.9804688,2.3300781v19.9921875h15.4541016c.8984375,0,1.6748047.3271484,2.3300781.9804688.6533203.6552734.9814453,1.4316406.9814453,2.3310547v14.8398438c0,.9013672-.328125,1.6767578-.9814453,2.3310547-.6552734.6552734-1.4316406.9804688-2.3300781.9804688h-15.4541016v13.4921875c0,1.8818359.4296875,3.3720703,1.2880859,4.4765625.8583984,1.1035156,2.1865234,1.6552734,3.9863281,1.6552734h11.1611328c.8984375,0,1.6748047.328125,2.3300781.9814453.6533203.6552734.9814453,1.4316406.9814453,2.3300781v16.0673828c0,.9003906-.328125,1.6767578-.9814453,2.3300781-.6552734.6552734-1.4316406.9814453-2.3300781.9814453h-13.859375Z"/>
    <path class="st0" d="M457.3785566,162.9272461c-1.6367188,0-2.9433594-.5097656-3.9248047-1.5332031-.9814453-1.0214844-1.5537109-2.0634766-1.7167969-3.1279297l-11.2841797-78.1269531v-.3681641c0-.7363281.2646484-1.3681641.7978516-1.9013672.5302734-.5302734,1.1650391-.796875,1.9003906-.796875h22.8134766c2.6982422,0,4.1699219,1.1035156,4.4150391,3.3115234l4.1699219,34.5869141,5.0283203-15.3310547c.1630859-.5712891.53125-1.3066406,1.1044922-2.2080078.5712891-.8984375,1.5947266-1.3486328,3.0664062-1.3486328h12.5097656c1.4716797,0,2.4931641.4501953,3.0664062,1.3486328.5712891.9013672.9394531,1.6367188,1.1035156,2.2080078l5.0292969,15.2080078,4.1699219-34.4638672c.2451172-2.2080078,1.7167969-3.3115234,4.4150391-3.3115234h22.8134766c.7353516,0,1.3681641.2666016,1.9003906.796875.53125.5332031.7978516,1.1650391.7978516,1.9013672v.3681641l-11.2841797,78.1269531c-.0820312,1.0644531-.6347656,2.1064453-1.65625,3.1279297-1.0224609,1.0234375-2.3505859,1.5332031-3.9853516,1.5332031h-17.5390625c-1.6367188,0-2.8417969-.4296875-3.6181641-1.2880859-.7783203-.8583984-1.2480469-1.5332031-1.4101562-2.0234375l-10.0576172-25.1435547-10.0576172,25.1435547c-.1650391.4902344-.6337891,1.1650391-1.4101562,2.0234375-.7783203.8583984-1.9833984,1.2880859-3.6181641,1.2880859h-17.5390625Z"/>
    <path class="st0" d="M563.7154707,164.1538086c-4.6601562,0-8.7900391-.8583984-12.3876953-2.5761719-3.5986328-1.7167969-6.3984375-4.046875-8.4013672-6.9902344-2.0048828-2.9443359-3.0048828-6.2558594-3.0048828-9.9345703,0-5.9677734,2.4316406-10.6494141,7.2978516-14.0439453,4.8632812-3.3916016,11.3847656-5.7832031,19.5625-7.1748047l13.0009766-2.0849609v-.1230469c0-2.125-.1845703-3.6787109-.5517578-4.6601562-.3681641-.9814453-1.4111328-1.4716797-3.1279297-1.4716797-1.1455078,0-2.0654297.2255859-2.7597656.6738281-.6953125.4511719-1.4521484,1.0849609-2.2685547,1.9013672-.9013672.9003906-2.0449219,1.3496094-3.4345703,1.3496094h-20.8505859c-.8183594,0-1.4921875-.2460938-2.0234375-.7363281-.5332031-.4902344-.7568359-1.1435547-.6748047-1.9619141.0810547-1.5527344.7363281-3.3730469,1.9628906-5.4580078s3.1269531-4.109375,5.703125-6.0712891c2.5751953-1.9628906,5.8867188-3.5976562,9.9345703-4.90625,4.046875-1.3066406,8.9326172-1.9619141,14.65625-1.9619141,5.5595703,0,10.4042969.59375,14.5341797,1.7783203,4.1279297,1.1855469,7.5429688,2.9033203,10.2412109,5.1513672,2.6982422,2.2490234,4.7216797,5.0283203,6.0712891,8.3398438,1.3486328,3.3115234,2.0234375,7.0527344,2.0234375,11.2226562v35.2001953c0,.9003906-.3271484,1.6767578-.9804688,2.3300781-.65625.6552734-1.4316406.9814453-2.3310547.9814453h-21.4638672c-.9003906,0-1.6767578-.3261719-2.3300781-.9814453-.6552734-.6533203-.9814453-1.4296875-.9814453-2.3300781v-3.4345703c-1.1455078,1.6367188-2.5966797,3.0478516-4.3535156,4.2314453-1.7597656,1.1865234-3.7412109,2.1064453-5.9482422,2.7597656-2.2080078.6533203-4.5810547.9814453-7.1142578.9814453ZM572.1783613,146.0014648c1.6347656,0,3.0449219-.3251953,4.2314453-.9814453,1.1845703-.6533203,2.1044922-1.6953125,2.7597656-3.1269531.6533203-1.4296875.9814453-3.2080078.9814453-5.3359375v-.1220703l-7.2363281,1.5947266c-2.1279297.4902344-3.5576172,1.1455078-4.2929688,1.9619141-.7363281.8183594-1.1035156,1.6767578-1.1035156,2.5761719,0,.5722656.1835938,1.1240234.5517578,1.6552734.3681641.5332031.8984375.9619141,1.59375,1.2880859.6943359.3271484,1.5332031.4902344,2.5146484.4902344Z"/>
    <path class="st0" d="M620.5016035,162.9272461c-.9013672,0-1.6767578-.3261719-2.3310547-.9814453-.6552734-.6533203-.9804688-1.4296875-.9804688-2.3300781v-57.1542969c0-.8994141.3251953-1.6757812.9804688-2.3310547.6542969-.6533203,1.4296875-.9804688,2.3310547-.9804688h21.4638672c.8984375,0,1.6748047.3271484,2.3300781.9804688.6533203.6552734.9814453,1.4316406.9814453,2.3310547v4.2919922c2.6152344-2.2880859,5.5380859-4.1279297,8.7685547-5.5185547,3.2294922-1.3896484,6.6845703-2.0849609,10.3642578-2.0849609h5.8876953c.8984375,0,1.6748047.3271484,2.3300781.9804688.6533203.6552734.9814453,1.4316406.9814453,2.3310547v19.1328125c0,.9003906-.328125,1.6767578-.9814453,2.3300781-.6552734.6552734-1.4316406.9814453-2.3300781.9814453h-15.8222656c-2.453125,0-4.2929688.6132812-5.5195312,1.8398438s-1.8398438,3.0664062-1.8398438,5.5195312v27.3505859c0,.9003906-.3271484,1.6767578-.9804688,2.3300781-.6552734.6552734-1.4316406.9814453-2.3310547.9814453h-23.3027344Z"/>
    <path class="st0" d="M708.1939863,164.1538086c-5.8867188,0-10.8964844-.59375-15.0244141-1.7783203-4.1298828-1.1845703-7.4814453-2.6982422-10.0566406-4.5380859-2.5761719-1.8398438-4.4775391-3.7597656-5.703125-5.7646484-1.2265625-2.0029297-1.8828125-3.8212891-1.9628906-5.4580078-.0820312-.8984375.1835938-1.6748047.796875-2.3300781.6132812-.6533203,1.328125-.9814453,2.1464844-.9814453h21.8320312c1.0615234.0820312,2.0234375.4296875,2.8818359,1.0429688s1.7578125,1.2070312,2.6982422,1.7783203c.9394531.5722656,2.0244141.8583984,3.2509766.8583984.6533203,0,1.2871094-.1630859,1.9003906-.4902344.6132812-.3261719.9199219-.7763672.9199219-1.3496094,0-.7363281-.2255859-1.3896484-.6748047-1.9628906-.4501953-.5703125-1.5537109-1.1650391-3.3115234-1.7783203-1.7587891-.6132812-4.6816406-1.2871094-8.7685547-2.0234375-3.7626953-.7353516-7.359375-1.8798828-10.7939453-3.4345703-3.4335938-1.5517578-6.2353516-3.7197266-8.4013672-6.5-2.1669922-2.7783203-3.25-6.2949219-3.25-10.5478516,0-3.5146484,1.1845703-6.8681641,3.5566406-10.0576172,2.3710938-3.1884766,5.8662109-5.8046875,10.4863281-7.8496094,4.6191406-2.0419922,10.2822266-3.0654297,16.9873047-3.0654297,5.0693359,0,9.5664062.5722656,13.4912109,1.7167969,3.9248047,1.1455078,7.2558594,2.6181641,9.9960938,4.4150391,2.7382812,1.7998047,4.8447266,3.7216797,6.3164062,5.7646484,1.4716797,2.0449219,2.2480469,3.9248047,2.3300781,5.6416016.0810547.9013672-.1640625,1.6777344-.7353516,2.3310547-.5732422.6552734-1.2265625.9804688-1.9628906.9804688h-20.6044922c-1.1464844,0-2.1679688-.3066406-3.0664062-.9199219-.9003906-.6123047-1.7998047-1.2255859-2.6982422-1.8388672-.9003906-.6132812-1.9628906-.9199219-3.1894531-.9199219-.5722656,0-1.1240234.1835938-1.6552734.5517578-.5332031.3681641-.796875.8388672-.796875,1.4101562,0,.6552734.2451172,1.2880859.7353516,1.9013672.4912109.6132812,1.6748047,1.1865234,3.5566406,1.7167969,1.8798828.5332031,4.9462891,1.125,9.1992188,1.7783203,5.8867188.8183594,10.5878906,2.3310547,14.1044922,4.5380859,3.5146484,2.2080078,6.0292969,4.7431641,7.5429688,7.6044922,1.5117188,2.8632812,2.2695312,5.6835938,2.2695312,8.4628906,0,4.3349609-1.3300781,8.0947266-3.9863281,11.2832031-2.6582031,3.1894531-6.5429688,5.6230469-11.6523438,7.2978516-5.1103516,1.6748047-11.3447266,2.5146484-18.7041016,2.5146484Z"/>
  </g>
</svg>